<mxfile host="Electron" agent="Mozilla/5.0 (Windows NT 10.0; Win64; x64) AppleWebKit/537.36 (KHTML, like Gecko) draw.io/27.0.9 Chrome/134.0.6998.205 Electron/35.4.0 Safari/537.36" version="27.0.9">
  <diagram name="Page-1" id="L4fMVyzU1TqOK6GXv7VC">
    <mxGraphModel dx="933" dy="559" grid="1" gridSize="10" guides="1" tooltips="1" connect="1" arrows="1" fold="1" page="1" pageScale="1" pageWidth="850" pageHeight="1100" math="0" shadow="0">
      <root>
        <mxCell id="0" />
        <mxCell id="1" parent="0" />
        <mxCell id="hCnKKuy-oRcqhT5Vvb4c-5" value="" style="rounded=0;whiteSpace=wrap;html=1;" vertex="1" parent="1">
          <mxGeometry x="60" y="160" width="700" height="480" as="geometry" />
        </mxCell>
        <mxCell id="hCnKKuy-oRcqhT5Vvb4c-6" value="" style="rounded=0;whiteSpace=wrap;html=1;" vertex="1" parent="1">
          <mxGeometry x="60" y="160" width="700" height="60" as="geometry" />
        </mxCell>
        <mxCell id="hCnKKuy-oRcqhT5Vvb4c-7" value="" style="rounded=1;whiteSpace=wrap;html=1;" vertex="1" parent="1">
          <mxGeometry x="80" y="170" width="60" height="40" as="geometry" />
        </mxCell>
        <mxCell id="hCnKKuy-oRcqhT5Vvb4c-8" value="home" style="text;html=1;align=center;verticalAlign=middle;whiteSpace=wrap;rounded=0;" vertex="1" parent="1">
          <mxGeometry x="80" y="175" width="60" height="30" as="geometry" />
        </mxCell>
        <mxCell id="hCnKKuy-oRcqhT5Vvb4c-12" value="" style="rounded=1;whiteSpace=wrap;html=1;" vertex="1" parent="1">
          <mxGeometry x="450" y="170" width="110" height="40" as="geometry" />
        </mxCell>
        <mxCell id="hCnKKuy-oRcqhT5Vvb4c-13" value="" style="rounded=1;whiteSpace=wrap;html=1;" vertex="1" parent="1">
          <mxGeometry x="240" y="170" width="100" height="40" as="geometry" />
        </mxCell>
        <mxCell id="hCnKKuy-oRcqhT5Vvb4c-14" value="" style="rounded=1;whiteSpace=wrap;html=1;" vertex="1" parent="1">
          <mxGeometry x="680" y="170" width="60" height="40" as="geometry" />
        </mxCell>
        <mxCell id="hCnKKuy-oRcqhT5Vvb4c-15" value="logout" style="text;html=1;align=center;verticalAlign=middle;whiteSpace=wrap;rounded=0;" vertex="1" parent="1">
          <mxGeometry x="680" y="175" width="60" height="30" as="geometry" />
        </mxCell>
        <mxCell id="hCnKKuy-oRcqhT5Vvb4c-16" value="profile" style="text;html=1;align=center;verticalAlign=middle;whiteSpace=wrap;rounded=0;" vertex="1" parent="1">
          <mxGeometry x="475" y="175" width="60" height="30" as="geometry" />
        </mxCell>
        <mxCell id="hCnKKuy-oRcqhT5Vvb4c-19" value="appointments" style="text;html=1;align=center;verticalAlign=middle;whiteSpace=wrap;rounded=0;" vertex="1" parent="1">
          <mxGeometry x="260" y="175" width="60" height="30" as="geometry" />
        </mxCell>
        <mxCell id="hCnKKuy-oRcqhT5Vvb4c-22" value="appointment list" style="text;html=1;align=center;verticalAlign=middle;whiteSpace=wrap;rounded=0;" vertex="1" parent="1">
          <mxGeometry x="335" y="230" width="140" height="30" as="geometry" />
        </mxCell>
        <mxCell id="hCnKKuy-oRcqhT5Vvb4c-23" value="" style="rounded=0;whiteSpace=wrap;html=1;" vertex="1" parent="1">
          <mxGeometry x="110" y="270" width="620" height="320" as="geometry" />
        </mxCell>
        <mxCell id="hCnKKuy-oRcqhT5Vvb4c-24" value="" style="endArrow=none;html=1;rounded=0;exitX=-0.002;exitY=0.131;exitDx=0;exitDy=0;exitPerimeter=0;entryX=1.002;entryY=0.144;entryDx=0;entryDy=0;entryPerimeter=0;" edge="1" parent="1" source="hCnKKuy-oRcqhT5Vvb4c-23" target="hCnKKuy-oRcqhT5Vvb4c-23">
          <mxGeometry width="50" height="50" relative="1" as="geometry">
            <mxPoint x="410" y="410" as="sourcePoint" />
            <mxPoint x="460" y="360" as="targetPoint" />
          </mxGeometry>
        </mxCell>
        <mxCell id="hCnKKuy-oRcqhT5Vvb4c-25" value="app no" style="text;html=1;align=center;verticalAlign=middle;whiteSpace=wrap;rounded=0;" vertex="1" parent="1">
          <mxGeometry x="110" y="280" width="60" height="30" as="geometry" />
        </mxCell>
        <mxCell id="hCnKKuy-oRcqhT5Vvb4c-26" value="patients name" style="text;html=1;align=center;verticalAlign=middle;whiteSpace=wrap;rounded=0;" vertex="1" parent="1">
          <mxGeometry x="180" y="280" width="60" height="30" as="geometry" />
        </mxCell>
        <mxCell id="hCnKKuy-oRcqhT5Vvb4c-27" value="time slot" style="text;html=1;align=center;verticalAlign=middle;whiteSpace=wrap;rounded=0;" vertex="1" parent="1">
          <mxGeometry x="470" y="280" width="60" height="30" as="geometry" />
        </mxCell>
        <mxCell id="hCnKKuy-oRcqhT5Vvb4c-28" value="date of birth" style="text;html=1;align=center;verticalAlign=middle;whiteSpace=wrap;rounded=0;" vertex="1" parent="1">
          <mxGeometry x="380" y="280" width="60" height="30" as="geometry" />
        </mxCell>
        <mxCell id="hCnKKuy-oRcqhT5Vvb4c-29" value="status" style="text;html=1;align=center;verticalAlign=middle;whiteSpace=wrap;rounded=0;" vertex="1" parent="1">
          <mxGeometry x="590" y="280" width="60" height="30" as="geometry" />
        </mxCell>
        <mxCell id="hCnKKuy-oRcqhT5Vvb4c-38" value="" style="edgeStyle=orthogonalEdgeStyle;rounded=0;orthogonalLoop=1;jettySize=auto;html=1;" edge="1" parent="1" source="hCnKKuy-oRcqhT5Vvb4c-30" target="hCnKKuy-oRcqhT5Vvb4c-33">
          <mxGeometry relative="1" as="geometry" />
        </mxCell>
        <mxCell id="hCnKKuy-oRcqhT5Vvb4c-30" value="" style="rounded=0;whiteSpace=wrap;html=1;" vertex="1" parent="1">
          <mxGeometry x="605" y="330" width="20" height="20" as="geometry" />
        </mxCell>
        <mxCell id="hCnKKuy-oRcqhT5Vvb4c-31" value="" style="rounded=0;whiteSpace=wrap;html=1;" vertex="1" parent="1">
          <mxGeometry x="690" y="330" width="20" height="20" as="geometry" />
        </mxCell>
        <mxCell id="hCnKKuy-oRcqhT5Vvb4c-32" value="" style="verticalLabelPosition=bottom;verticalAlign=top;html=1;shape=mxgraph.basic.tick" vertex="1" parent="1">
          <mxGeometry x="390" y="390" width="20" as="geometry" />
        </mxCell>
        <mxCell id="hCnKKuy-oRcqhT5Vvb4c-33" value="" style="verticalLabelPosition=bottom;verticalAlign=top;html=1;shape=mxgraph.basic.tick" vertex="1" parent="1">
          <mxGeometry x="605" y="330" width="30" height="20" as="geometry" />
        </mxCell>
        <mxCell id="hCnKKuy-oRcqhT5Vvb4c-34" value="accept" style="text;html=1;align=center;verticalAlign=middle;whiteSpace=wrap;rounded=0;" vertex="1" parent="1">
          <mxGeometry x="545" y="325" width="60" height="30" as="geometry" />
        </mxCell>
        <mxCell id="hCnKKuy-oRcqhT5Vvb4c-36" value="reject" style="text;html=1;align=center;verticalAlign=middle;whiteSpace=wrap;rounded=0;" vertex="1" parent="1">
          <mxGeometry x="630" y="325" width="60" height="30" as="geometry" />
        </mxCell>
        <mxCell id="hCnKKuy-oRcqhT5Vvb4c-39" value="mobile_no" style="text;html=1;align=center;verticalAlign=middle;whiteSpace=wrap;rounded=0;" vertex="1" parent="1">
          <mxGeometry x="275" y="280" width="60" height="30" as="geometry" />
        </mxCell>
      </root>
    </mxGraphModel>
  </diagram>
</mxfile>
